<?xml version="1.0" encoding="UTF-8"?>
<svg width="360px" height="180px" viewBox="0 0 360 180" version="1.1" xmlns="http://www.w3.org/2000/svg" xmlns:xlink="http://www.w3.org/1999/xlink">
    <title>GL_HPBrand_michael-kors</title>
    <g id="GL_HPBrand_michael-kors" stroke="none" stroke-width="1" fill="none" fill-rule="evenodd">
        <path d="M99.8445107,78.0824514 C105.092441,78.0824514 109.544814,81.5905601 111.111881,86.4537177 L106.813122,86.4537177 C105.478687,83.8991981 102.858893,82.162321 99.8445107,82.162321 C95.4775337,82.162321 91.9365425,85.8083395 91.9365425,90.3058646 C91.9365425,94.8038804 95.4775337,98.4498989 99.8445107,98.4498989 C102.773497,98.4498989 105.33047,96.8097059 106.696807,94.3724831 L111.040227,94.3724831 C109.412794,99.1242332 105.014898,102.529769 99.8445107,102.529769 C93.2896281,102.529769 87.975442,97.0570599 87.975442,90.3058646 C87.975442,83.55516 93.2896281,78.0824514 99.8445107,78.0824514 L99.8445107,78.0824514 Z M53.0106694,85.2203828 L59.4624879,102.250514 L63.5197816,102.250514 L69.5760298,85.4004998 L69.5760298,102.250514 L73.5866992,102.250514 L73.5866992,78.5118855 L67.9706823,78.5118855 L61.4005855,95.302024 L55.045451,78.5118855 L49,78.5118855 L49,102.250514 L53.0106694,102.250514 L53.0106694,85.2203828 Z M79.4589043,102.250514 L83.4494517,102.250514 L83.4494517,78.5118855 L79.4589043,78.5118855 L79.4589043,102.250514 Z M130.760824,92.1570938 L130.760824,102.250514 L134.784253,102.250514 L134.784253,78.5118855 L130.760824,78.5118855 L130.760824,88.183233 L118.854946,88.183233 L118.854946,78.5118855 L114.832007,78.5118855 L114.832007,102.250514 L118.854946,102.250514 L118.854946,92.1570938 L130.760824,92.1570938 Z M154.615767,96.3292304 L156.924405,102.250514 L161.193226,102.250514 L151.827635,78.5118855 L147.492559,78.5118855 L138.12746,102.250514 L142.429163,102.250514 L144.704918,96.3292304 L154.615767,96.3292304 Z M149.677029,82.9451181 L153.267099,92.3907059 L146.086469,92.3907059 L149.677029,82.9451181 Z M164.842189,78.5118855 L164.842189,102.250514 L181.757968,102.250514 L181.757968,98.3114984 L169.16745,98.3114984 L169.16745,92.1924301 L180.949159,92.1924301 L180.949159,88.2180785 L169.16745,88.2180785 L169.16745,82.45041 L181.651959,82.45041 L181.651959,78.5118855 L164.842189,78.5118855 Z M186.898908,78.5118855 L186.898908,102.250514 L201.89622,102.250514 L201.89622,98.3114984 L191.254106,98.3114984 L191.254106,78.5118855 L186.898908,78.5118855 Z M225.734968,90.8565218 L222.188578,94.2389904 L222.188578,102.250514 L218.209319,102.250514 L218.209319,78.5118855 L222.188578,78.5118855 L222.188578,89.0843085 L232.152431,78.5118855 L237.296316,78.5118855 L228.302248,88.122376 L238.98755,102.250514 L233.703793,102.250514 L225.734968,90.8565218 Z M255.559291,101.456429 C257.031637,100.828228 258.303743,99.9561084 259.374629,98.8385981 C260.445515,97.7215786 261.316162,96.4298407 261.952216,94.964366 C262.588269,93.4984006 262.889118,91.9274078 262.889118,90.217033 C262.889118,88.5415037 262.554405,86.970511 261.918352,85.4697 C261.282298,83.9688891 260.412142,82.6771512 259.341256,81.5601317 C258.27037,80.4436029 256.998263,79.570502 255.525427,78.9423012 C254.053081,78.3141004 252.480126,78 250.806559,78 C249.132993,78 247.559547,78.3141004 246.087201,78.9423012 C244.614365,79.570502 243.342749,80.4436029 242.271372,81.5601317 C241.199995,82.6771512 240.33033,83.9688891 239.694276,85.4697 C239.058223,86.970511 238.72351,88.5415037 238.72351,90.217033 C238.72351,91.9274078 239.02485,93.5332461 239.660903,94.9992116 C240.296466,96.465177 241.166622,97.7564241 242.237999,98.8739344 C243.308885,99.9904632 244.580501,100.863073 246.053337,101.491765 C249.007844,102.752093 252.607729,102.716266 255.559291,101.456429 L255.559291,101.456429 Z M250.772695,98.3851157 C249.701809,98.3851157 248.69767,98.1755518 247.760767,97.7564241 C246.823374,97.3377872 245.986591,96.7444319 245.283791,96.0116946 C244.580501,95.2784664 244.012175,94.4058563 243.610225,93.3938641 C243.208275,92.3808903 243.008036,91.3340526 243.008036,90.217033 C243.008036,89.1000135 243.208275,88.052685 243.610225,87.0406928 C244.012175,86.0282098 244.580501,85.1555996 245.283791,84.4223715 C245.986591,83.6896342 246.823374,83.0962789 247.760767,82.6771512 C248.69767,82.2585143 249.701809,82.0489504 250.772695,82.0489504 C251.844072,82.0489504 252.848212,82.2585143 253.818488,82.6771512 C254.789254,83.0962789 255.626037,83.6896342 256.328837,84.4223715 C257.031637,85.1555996 257.600453,86.0282098 258.002403,87.0406928 C258.403863,88.052685 258.604592,89.1000135 258.604592,90.217033 C258.604592,91.3340526 258.403863,92.3808903 258.002403,93.3938641 C257.600453,94.4058563 257.031637,95.2784664 256.328837,96.0116946 C255.626037,96.7444319 254.789254,97.3377872 253.818488,97.7564241 C252.848212,98.1755518 251.844072,98.3851157 250.772695,98.3851157 L250.772695,98.3851157 Z M272.809292,82.2747101 L279.8633,82.2747101 C280.350646,82.2747101 280.773209,82.3802282 281.163872,82.5912644 C281.553553,82.8023006 281.87845,83.1188549 282.139055,83.505591 C282.39917,83.8923271 282.59401,84.3143995 282.724067,84.7718082 C282.854125,85.2292169 282.918908,85.7209803 282.918908,86.2132346 C282.918908,86.7059796 282.854125,87.1982338 282.724067,87.690488 C282.59401,88.183233 282.39917,88.6401509 282.139055,89.026887 C281.87845,89.4136231 281.553553,89.7301774 281.163872,89.9765499 C280.773209,90.2229224 280.318745,90.363286 279.798517,90.363286 L272.7769,90.363286 L272.809292,82.2747101 Z M278.990199,94.3376376 L283.534839,102.144996 L288.364133,102.144996 L282.933631,93.6034279 C285.778203,91.6123259 286.917308,89.8695595 286.917308,86.1082072 C286.917308,85.1585443 286.754859,84.2442177 286.462353,83.3298911 C286.169356,82.4155645 285.747284,81.6067559 285.194173,80.8681292 C284.642043,80.1295025 283.959365,79.5665757 283.146631,79.1449941 C282.333896,78.7229217 281.391104,78.5118855 280.350646,78.5118855 L268.745618,78.5118855 L268.745618,102.250514 L272.744509,102.250514 L272.744509,94.4426649 L278.990199,94.3376376 Z M291.123799,98.6089122 C294.57645,101.106501 297.070112,102.250514 301.4312,102.250514 C303.549414,102.250514 305.594993,101.905985 307.169421,100.907734 C309.461373,99.4550201 310.796299,96.816086 310.236317,93.4895665 C309.813754,90.9743095 307.797131,89.2663886 304.294912,88.6754872 C302.936428,88.4462921 299.778247,88.2318204 297.911803,87.2281715 C295.92021,86.1567946 295.71899,83.9139215 297.206059,82.8145701 C299.651134,81.0065297 305.627385,83.105113 307.838357,84.5352514 L309.517813,81.1778126 C308.797836,80.6291185 308.00964,80.1839793 307.153226,79.8070588 C306.296321,79.4301384 305.439906,79.1557913 304.583492,78.9506445 C303.726587,78.7450069 302.870172,78.5732332 302.047622,78.4706598 C301.225562,78.3675956 300.471721,78.3337317 299.820454,78.3337317 C298.552764,78.3337317 297.422003,78.5050145 296.42866,78.8475803 C294.218179,79.6097645 292.73111,81.4801342 292.282044,83.7691409 C291.480107,87.8627524 293.81083,90.0835404 296.69859,91.1274334 C299.195198,92.0294905 302.064308,91.9445852 304.224239,92.7283639 C306.297302,93.4807325 306.846978,96.2350003 305.234269,97.6685741 C304.617356,98.2167775 303.589659,98.4906338 302.150195,98.4906338 C298.06051,98.4906338 296.573932,97.2214719 293.448142,95.3192013 L291.123799,98.6089122 Z" id="michael-kors_black" fill="#1A1919"></path>
    </g>
</svg>