<?xml version="1.0" encoding="UTF-8"?>
<svg width="360px" height="180px" viewBox="0 0 360 180" version="1.1" xmlns="http://www.w3.org/2000/svg" xmlns:xlink="http://www.w3.org/1999/xlink">
    <title>GL_HPBrand_vogue</title>
    <defs>
        <polygon id="path-1" points="0.0673835065 0.11063937 138.645477 0.11063937 138.645477 68.8920276 0.0673835065 68.8920276"></polygon>
    </defs>
    <g id="GL_HPBrand_vogue" stroke="none" stroke-width="1" fill="none" fill-rule="evenodd">
        <g id="VOGUE_LOGO_2019" transform="translate(98.000000, 55.500000)">
            <polyline id="Fill-1" fill="#1A1919" points="10.5113923 15.0806461 16.8815247 0.702092665 20.9764856 0.702092665 10.5113923 23.4988024 0 0.702092665 4.14104253 0.702092665 10.5113923 15.0806461"></polyline>
            <path d="M37.3630675,11.3952031 C37.3630675,15.7636106 40.4574921,19.3125477 44.9617534,19.3125477 C49.4668843,19.3125477 52.5606567,15.7636106 52.5606567,11.3952031 C52.5606567,7.07244243 49.4668843,3.47742367 44.9617534,3.47742367 C40.4574921,3.47742367 37.3630675,7.07244243 37.3630675,11.3952031 Z M33.723054,11.4408499 C33.723054,5.16114187 38.6826974,0.11063937 44.9617534,0.11063937 C51.2414615,0.11063937 56.201105,5.16114187 56.201105,11.4408499 C56.201105,17.7199059 51.196032,22.6795494 44.9617534,22.6795494 C38.728127,22.6795494 33.723054,17.7199059 33.723054,11.4408499 L33.723054,11.4408499 Z" id="Fill-3" fill="#1A1919"></path>
            <path d="M74.0436054,11.1676207 C74.0436054,15.3538754 76.5007123,19.3125477 81.0510553,19.3125477 C85.7376869,19.3125477 88.1945765,15.5358108 88.1945765,11.2130502 C88.1945765,6.93571912 85.5101045,3.47742367 81.0056258,3.47742367 C76.7737242,3.47742367 74.0436054,7.16330148 74.0436054,11.1676207 Z M91.6528719,21.0416954 C91.6528719,24.4539093 91.6528719,27.4122626 89.4689942,30.2328057 C87.4668346,32.7812065 84.3726275,34.0095426 81.1871265,34.0095426 C75.2269467,34.0095426 70.8131097,30.2328057 70.6763864,24.1808974 L74.3168346,24.1808974 C74.3622642,28.1397871 77.2288889,30.6427583 81.141697,30.6427583 C86.7840875,30.6427583 88.0130758,26.5017158 88.0130758,21.6787956 L88.0130758,19.1303949 L87.9215646,19.1303949 C86.1924169,21.3603542 83.3716564,22.6795494 80.5050316,22.6795494 C74.270753,22.6795494 70.3125154,17.4466767 70.3125154,11.4862795 C70.3125154,5.47980065 74.3168346,0.11063937 80.6413201,0.11063937 C83.598804,0.11063937 86.1924169,1.42983454 87.9215646,3.75065292 L88.0130758,3.75065292 L88.0130758,0.702092665 L91.6528719,0.702092665 L91.6528719,21.0416954 L91.6528719,21.0416954 Z" id="Fill-4" fill="#1A1919"></path>
            <g id="Group-10" transform="translate(24.345009, 0.000000)">
                <mask id="mask-2" fill="white">
                    <use xlink:href="#path-1"></use>
                </mask>
                <g id="Clip-6"></g>
                <path d="M88.9266657,12.6237565 C88.9266657,16.2183406 89.3366182,19.3125477 93.7500206,19.3125477 C98.1636402,19.3125477 98.5735928,16.2183406 98.5735928,12.6237565 L98.5735928,0.702092665 L102.213606,0.702092665 L102.213606,13.033057 C102.213606,18.7210944 100.075158,22.6795494 93.7500206,22.6795494 C87.4253177,22.6795494 85.2868695,18.7210944 85.2868695,13.033057 L85.2868695,0.702092665 L88.9266657,0.702092665 L88.9266657,12.6237565" id="Fill-5" fill="#1A1919" mask="url(#mask-2)"></path>
                <path d="M134.798531,9.07460204 C134.29772,5.98039489 131.704324,3.47742367 128.518823,3.47742367 C125.379186,3.47742367 122.467132,5.98039489 122.012402,9.07460204 L134.798531,9.07460204 Z M121.830249,12.1685918 C121.875679,16.1274815 124.696657,19.3125477 128.837482,19.3125477 C131.931906,19.3125477 133.934066,17.4466767 135.344555,14.898928 L138.438327,16.6735053 C136.390738,20.4956717 132.93266,22.6795494 128.564253,22.6795494 C122.19412,22.6795494 118.098942,17.8111997 118.098942,11.6677802 C118.098942,5.34351207 121.78482,0.11063937 128.473394,0.11063937 C135.344555,0.11063937 138.984569,5.79824206 138.620698,12.1685918 L121.830249,12.1685918 L121.830249,12.1685918 Z" id="Fill-7" fill="#1A1919" mask="url(#mask-2)"></path>
                <path d="M8.14362282,56.5115038 C7.90169429,54.9792898 6.6474916,53.739868 5.1070177,53.739868 C3.58828041,53.739868 2.17996512,54.9792898 1.95999058,56.5115038 L8.14362282,56.5115038 Z M1.87195729,58.0437178 C1.89391127,60.0043605 3.25831859,61.5815693 5.26091293,61.5815693 C6.75726151,61.5815693 7.72584507,60.6577631 8.40772269,59.3957353 L9.90428863,60.2745466 C8.91396845,62.1675884 7.24155329,63.2492024 5.12875431,63.2492024 C2.0478065,63.2492024 0.0673835065,60.8379597 0.0673835065,57.7959204 C0.0673835065,54.6636742 1.84978594,52.0724523 5.08484635,52.0724523 C8.40772269,52.0724523 10.1683885,54.8890829 9.99232192,58.0437178 L1.87195729,58.0437178 L1.87195729,58.0437178 Z" id="Fill-8" fill="#1A1919" mask="url(#mask-2)"></path>
                <polyline id="Fill-9" fill="#1A1919" mask="url(#mask-2)" points="16.1976908 52.3652445 18.2441931 52.3652445 21.897466 59.9591483 25.2422963 52.3652445 27.2448906 52.3652445 19.6086004 68.9050696 17.6062234 68.9050696 20.9510537 61.9647858 16.1976908 52.3652445"></polyline>
            </g>
            <path d="M65.8712902,56.5115038 C65.6291443,54.9792898 64.3749417,53.739868 62.8344678,53.739868 C61.3159478,53.739868 59.9074152,54.9792898 59.6874406,56.5115038 L65.8712902,56.5115038 Z M59.5994073,58.0437178 C59.6215787,60.0043605 60.9857686,61.5815693 62.988363,61.5815693 C64.4849289,61.5815693 65.4532951,60.6577631 66.1351727,59.3957353 L67.6317387,60.2745466 C66.6414185,62.1675884 64.9690033,63.2492024 62.8562044,63.2492024 C59.7754739,63.2492024 57.7948336,60.8379597 57.7948336,57.7959204 C57.7948336,54.6636742 59.577236,52.0724523 62.8122964,52.0724523 C66.1351727,52.0724523 67.8958386,54.8890829 67.719772,58.0437178 L59.5994073,58.0437178 L59.5994073,58.0437178 Z" id="Fill-11" fill="#1A1919"></path>
            <polyline id="Fill-12" fill="#1A1919" points="79.0967163 59.530937 82.3098227 51.554034 85.5444484 59.530937 88.6253962 52.3652445 90.6282079 52.3652445 85.5005404 63.6998024 82.3098227 55.812889 79.1186703 63.6998024 74.0351281 52.3652445 76.0377224 52.3652445 79.0967163 59.530937"></polyline>
            <path d="M105.019369,56.5115038 C104.77744,54.9792898 103.52302,53.739868 101.982546,53.739868 C100.464026,53.739868 99.0557109,54.9792898 98.8357364,56.5115038 L105.019369,56.5115038 Z M98.7477031,58.0437178 C98.7696571,60.0043605 100.133847,61.5815693 102.136441,61.5815693 C103.633007,61.5815693 104.601374,60.6577631 105.283468,59.3957353 L106.780034,60.2745466 C105.789714,62.1675884 104.117299,63.2492024 102.0045,63.2492024 C98.9235523,63.2492024 96.9431293,60.8379597 96.9431293,57.7959204 C96.9431293,54.6636742 98.7255317,52.0724523 101.960592,52.0724523 C105.283468,52.0724523 107.044134,54.8890829 106.868068,58.0437178 L98.7477031,58.0437178 L98.7477031,58.0437178 Z" id="Fill-13" fill="#1A1919"></path>
            <path d="M115.714001,57.5479056 C115.714001,59.621144 116.902559,61.5815693 119.103174,61.5815693 C121.369868,61.5815693 122.558209,59.7113509 122.558209,57.5707291 C122.558209,55.4524959 121.259881,53.739868 119.081002,53.739868 C117.0345,53.739868 115.714001,55.5650916 115.714001,57.5479056 Z M124.230624,62.9561928 L122.470175,62.9561928 L122.470175,61.4915797 L122.42605,61.4915797 C121.52398,62.6631832 120.313468,63.2492024 118.861028,63.2492024 C115.824205,63.2492024 113.909427,60.6127683 113.909427,57.6831074 C113.909427,54.6636742 115.78008,52.0724523 118.882982,52.0724523 C120.291514,52.0724523 121.567888,52.7482437 122.42605,53.8750698 L122.470175,53.8750698 L122.470175,52.3652445 L124.230624,52.3652445 L124.230624,62.9561928 L124.230624,62.9561928 Z" id="Fill-14" fill="#1A1919"></path>
            <path d="M134.660938,53.5146767 L134.704846,53.5146767 C135.321079,52.6808601 135.849279,52.0724523 136.993712,52.0724523 C137.587774,52.0724523 138.072065,52.2750375 138.578311,52.5680471 L137.741886,54.2128568 C137.389753,53.9652767 137.147825,53.739868 136.685704,53.739868 C134.749189,53.739868 134.660938,56.2863125 134.660938,57.6607186 L134.660938,62.9561928 L132.90049,62.9561928 L132.90049,52.3652445 L134.660938,52.3652445 L134.660938,53.5146767" id="Fill-15" fill="#1A1919"></path>
        </g>
    </g>
</svg>