<?xml version="1.0" encoding="UTF-8"?>
<svg width="360px" height="180px" viewBox="0 0 360 180" version="1.1" xmlns="http://www.w3.org/2000/svg" xmlns:xlink="http://www.w3.org/1999/xlink">
    <title>GL_HPBrand_dolce-gabbana</title>
    <g id="GL_HPBrand_dolce-gabbana" stroke="none" stroke-width="1" fill="none" fill-rule="evenodd">
        <path d="M72.1399887,76 C80.3463576,76 86.9984021,82.267948 86.9984021,90 C86.9984021,97.732052 80.3463576,104 72.1399887,104 C63.9341474,104 57.2815753,97.732052 57.2815753,90 C57.2815753,82.267948 63.9341474,76 72.1399887,76 Z M112.31342,76.0001583 C115.462167,76.0001583 118.368743,76.9630375 120.771457,78.5991408 L120.771457,82.5551234 C118.751784,80.7507142 116.038312,79.6401055 113.038349,79.6401055 C106.907579,79.6401055 101.937539,84.2782815 101.937539,90.0001583 C101.937539,95.722035 106.907579,100.360211 113.038349,100.360211 C116.045171,100.360211 118.749674,99.2443264 120.771457,97.4325306 L120.771457,101.390624 C118.387737,103.033058 115.468498,103.999631 112.31342,103.999631 C102.904112,103.999631 97.7668212,97.7316827 97.7668212,90.0001583 C97.7668212,82.2681063 102.950541,76.0001583 112.31342,76.0001583 Z M174.273616,76.000211 C179.660464,76.000211 184.31183,78.7506162 186.49717,82.7456416 L183.26084,84.3912418 C181.335082,81.5326776 178.043882,79.6401583 174.273616,79.6401583 C168.370243,79.6401583 163.58592,84.2783343 163.58592,90.000211 C163.58592,95.7220878 168.370243,100.360264 174.273616,100.360264 C179.069018,100.360264 183.391686,97.638877 183.391686,93.0808969 L174.857147,93.0808969 L174.857147,89.791807 L187.808268,89.791807 L187.808268,90.000211 C187.808268,99.2528208 183.205969,103.999683 174.273616,103.999683 C166.067247,103.999683 159.414675,97.7317354 159.414675,90.000211 C159.414675,82.268159 166.067247,76.000211 174.273616,76.000211 Z M147.601809,89.7537667 C149.633616,89.7537667 151.0228,90.8327191 151.0228,92.6983305 C151.0228,94.3729489 149.910081,95.3163068 148.667571,96.0786961 L151.208517,99.0290635 C151.927115,98.2289504 152.461117,97.4718702 152.683206,97.1433371 L152.755104,97.0356935 C152.782434,96.9942135 152.796608,96.9719314 152.796608,96.9719314 L154.279178,98.4550292 C154.279178,98.4550292 153.608592,99.4442887 152.531223,100.560173 L154.907028,103.306885 L152.082231,103.306885 L150.965819,101.977321 C149.770266,102.906961 148.348898,103.655632 146.877407,103.655632 C144.158131,103.655632 142.612248,101.785272 142.612248,99.7054532 C142.612248,97.4525796 144.03045,96.3825966 145.530959,95.6038515 C144.659883,94.5861014 144.261014,93.9392576 144.261014,92.8170416 C144.261014,91.0912455 145.571057,89.7537667 147.601809,89.7537667 Z M262.682653,76.6605088 L273.827782,103.306674 L269.52147,103.306674 L266.505679,95.7972715 L256.301798,95.7972715 L253.281259,103.306674 L248.974419,103.306674 L260.120075,76.6605088 L262.682653,76.6605088 Z M315.578119,76.6605088 L326.723249,103.306674 L322.416409,103.306674 L319.401146,95.7972715 L309.197264,95.7972715 L306.176197,103.306674 L301.869885,103.306674 L313.015014,76.6605088 L315.578119,76.6605088 Z M92.0625664,76.660667 L92.0625664,99.9839759 L99.6970115,99.9839759 L99.6970115,103.306832 L88.072817,103.306832 L88.072817,76.660667 L92.0625664,76.660667 Z M41.9536461,76.660456 C50.5752402,76.660456 56.0934615,82.5195101 56.0934615,90.132851 C56.0934615,96.2789222 52.1052949,103.306621 42.3509327,103.306621 L34,103.306621 L34,76.660456 L41.9536461,76.660456 Z M135.718033,76.660667 L135.718033,80.085879 L126.171547,80.085879 L126.171547,87.7445939 L135.453703,87.7445939 L135.453703,91.0104692 L126.171547,91.0104692 L126.171547,99.9839759 L135.718033,99.9839759 L135.718033,103.306832 L121.904805,103.306832 L121.904805,76.660667 L135.718033,76.660667 Z M199.216514,76.6605088 L210.361116,103.306674 L206.054803,103.306674 L203.038485,95.7972715 L192.834603,95.7972715 L189.814592,103.306674 L185.50828,103.306674 L196.652881,76.6605088 L199.216514,76.6605088 Z M277.893665,76.6602977 L296.598847,96.5241002 L296.598847,76.6602977 L300.406045,76.6602977 L300.406045,103.306991 L297.641922,103.306991 L279.255941,83.9201432 L279.255941,103.306991 L275.309455,103.306991 L275.309455,76.6602977 L277.893665,76.6602977 Z M218.113586,76.660245 C224.730808,76.660245 227.536084,79.0629584 227.536084,83.7718334 C227.536084,86.9617016 224.876629,88.7156875 224.554271,88.9165752 L224.522404,88.9360317 C224.522404,88.9360317 230.030073,90.4238779 230.030073,95.7970077 C230.030073,102.176808 224.244884,103.306938 220.572225,103.306938 L211.531185,103.306938 L211.531185,76.660245 Z M238.356314,76.660245 C244.973537,76.660245 247.778813,79.0629584 247.778813,83.7718334 C247.778813,87.1674995 244.765133,88.9360317 244.765133,88.9360317 C244.765133,88.9360317 250.272802,90.4238779 250.272802,95.7970077 C250.272802,102.176808 244.487613,103.306938 240.814954,103.306938 L231.773386,103.306938 L231.773386,76.660245 Z M146.84364,97.098029 C145.723535,97.7480384 144.816582,98.4650537 144.816582,99.6584963 C144.816582,100.975399 145.927718,101.630684 146.986621,101.630684 C147.912568,101.630684 148.851178,101.137373 149.695873,100.471536 L147.363859,97.7068852 C147.181835,97.4900396 147.008253,97.2884944 146.84364,97.098029 Z M72.1399887,79.6399472 C66.237671,79.6399472 61.4517656,84.2781232 61.4517656,90 C61.4517656,95.7218768 66.237671,100.360053 72.1399887,100.360053 C78.042834,100.360053 82.8282118,95.7218768 82.8282118,90 C82.8282118,84.2781232 78.042834,79.6399472 72.1399887,79.6399472 Z M220.305257,91.2395553 L215.898172,91.2395553 L215.898172,100.227835 L220.305257,100.227835 C222.847786,100.227835 225.663086,98.8824421 225.663086,95.6418918 C225.663086,92.4018692 223.44398,91.2395553 220.305257,91.2395553 Z M240.547986,91.2395553 L236.140373,91.2395553 L236.140373,100.227835 L240.547986,100.227835 C243.090514,100.227835 245.905815,98.8824421 245.905815,95.6418918 C245.905815,92.4018692 243.686708,91.2395553 240.547986,91.2395553 Z M42.4295459,80.0861956 L38.3458828,80.0861956 L38.3458828,99.9695195 L42.8616544,99.9695195 C47.9456567,99.9695195 51.7934803,95.532361 51.7934803,90.0758696 C51.7934803,84.992395 48.1614471,80.0861956 42.4295459,80.0861956 Z M147.630827,91.6246542 C146.170944,91.6246542 146.153005,93.1272734 146.760806,93.8527304 L147.455662,94.6647145 C148.317241,94.2030601 148.945619,93.6960317 148.945619,92.8829923 C148.945619,92.6017788 148.783117,91.6246542 147.630827,91.6246542 Z M197.934961,83.0877935 L194.186855,92.4295685 L201.687816,92.4295685 L197.934961,83.0877935 Z M261.401628,83.0877935 L257.653522,92.4295685 L265.154483,92.4295685 L261.401628,83.0877935 Z M314.296567,83.0877935 L310.548461,92.4295685 L318.049422,92.4295685 L314.296567,83.0877935 Z M219.258489,80.0859845 L215.898172,80.0859845 L215.898172,87.9652384 L218.839043,87.9652384 C220.777991,87.9652384 223.343207,86.7855135 223.343207,83.9454155 C223.343207,81.1053175 221.651178,80.0859845 219.258489,80.0859845 Z M239.501217,80.0859845 L236.140373,80.0859845 L236.140373,87.9652384 L239.081771,87.9652384 C241.020192,87.9652384 243.585936,86.7855135 243.585936,83.9454155 C243.585936,81.1053175 241.893906,80.0859845 239.501217,80.0859845 Z" id="dolce&amp;gabbana_black" fill="#1A1919"></path>
    </g>
</svg>