<?xml version="1.0" encoding="UTF-8"?>
<svg width="360px" height="180px" viewBox="0 0 360 180" version="1.1" xmlns="http://www.w3.org/2000/svg" xmlns:xlink="http://www.w3.org/1999/xlink">
    <title>GL_HPBrand_burberry</title>
    <g id="GL_HPBrand_burberry" stroke="none" stroke-width="1" fill="none" fill-rule="evenodd">
        <g id="BE_LOGO_LE_SMALL" transform="translate(68.666667, 63.500000)" fill="#050E14">
            <path d="M146.256573,5.47806971 L153.177338,5.47806971 L153.149306,5.48850041 C155.255654,5.60063036 156.597954,6.82232531 156.597954,8.6646465 C156.597954,10.4893659 155.160474,11.7664739 153.016966,11.8420964 L146.256573,11.8420964 L146.256573,5.47806971 Z M146.362836,17.2940894 C146.553196,17.2940894 149.286038,17.2940894 151.473224,17.2947413 L157.722513,28.2613115 L164.876013,28.2613115 L158.12605,16.4185631 C161.109228,14.9876024 163.021305,11.973132 163.021305,8.65291197 C163.021305,3.88738899 159.144999,0.0110826116 154.379476,0.0104306933 L139.94144,0.0104306933 L139.94144,28.2600076 L146.362836,28.2600076 L146.362836,17.2940894 L146.362836,17.2940894 Z" id="Fill-1"></path>
            <polyline id="Fill-2" points="135.02728 22.589622 119.797164 22.589622 119.797164 16.5639409 132.521958 16.5639409 132.521958 11.0532753 119.797164 11.0532753 119.797164 5.40114335 134.310822 5.40114335 134.310822 0.0104306933 113.20301 0.0104306933 113.20301 28.2613115 135.02728 28.2613115 135.02728 22.589622"></polyline>
            <path d="M70.1451083,11.8420964 L63.3840633,11.8420964 L63.3840633,5.47806971 L70.3048283,5.47806971 L70.2767958,5.48850041 C72.3837958,5.60063036 73.7260957,6.82232531 73.7260957,8.6646465 C73.7260957,10.4893659 72.2886158,11.7664739 70.1451083,11.8420964 Z M82.0041546,28.2613115 L75.2541922,16.4185631 C78.2373705,14.9876024 80.149447,11.973132 80.149447,8.65291197 C80.149447,3.88738899 76.2731406,0.0110826116 71.5076176,0.0104306933 L57.0695824,0.0104306933 L57.0695824,28.2600076 L63.4909779,28.2600076 L63.4909779,17.2940894 C63.6813381,17.2940894 66.4141797,17.2940894 68.6013657,17.2947413 L74.8500029,28.2613115 L82.0041546,28.2613115 L82.0041546,28.2613115 Z" id="Fill-3"></path>
            <path d="M39.4130264,28.9569083 C47.1382586,28.9569083 51.7499288,24.5160407 51.7499288,17.0776525 L51.7499288,0.0306401614 L45.1564269,0.0306401614 L45.1564269,16.6369557 C45.1564269,20.6586399 43.0631171,22.965127 39.4130264,22.965127 L39.4097668,22.965127 C35.760328,22.965127 33.6663663,20.6586399 33.6663663,16.6369557 L33.6663663,0.0306401614 L27.0722124,0.0306401614 L27.0722124,17.0776525 C27.0722124,24.5160407 31.6845346,28.9569083 39.4097668,28.9569083 L39.4130264,28.9569083" id="Fill-4"></path>
            <path d="M13.681158,22.9898999 L6.473549,22.9898999 L6.473549,16.3892268 L13.681158,16.3892268 C16.0619638,16.3892268 17.1324137,18.2843534 17.1324137,19.6292609 C17.1324137,21.2994756 15.9472262,22.9898999 13.681158,22.9898999 Z M6.473549,5.27988654 C11.1621456,5.27988654 11.6954148,5.27988654 11.749524,5.27988654 C13.3558508,5.27988654 14.7131448,6.61697103 14.7131448,8.19917682 C14.7131448,9.83679566 13.4112639,11.119119 11.749524,11.119119 C8.85044323,11.119119 6.64174393,11.119119 6.473549,11.119119 L6.473549,5.27988654 Z M17.9003735,12.6146197 C19.9161049,11.3603288 21.1221538,9.18878884 21.1221538,6.82297723 C21.1221538,3.08487753 18.095949,0.039767018 14.3650204,0.00847493827 C13.6322642,0.00847493827 14.4041355,0.00847493827 0,0.00977877493 L0,28.2600076 L15.5951903,28.2613115 C19.9891198,28.2469693 23.5596765,24.6679376 23.5596765,20.2707485 C23.5596765,17.1493635 21.7049688,13.9119371 17.9003735,12.6146197 L17.9003735,12.6146197 Z" id="Fill-5"></path>
            <path d="M99.2369637,22.9846845 L92.0293547,22.9846845 L92.0293547,16.3833595 L99.2369637,16.3833595 C101.617769,16.3833595 102.688219,18.2784861 102.688219,19.6240455 C102.688219,21.2942603 101.503032,22.9846845 99.2369637,22.9846845 Z M92.0293547,5.2746712 C96.7179513,5.2746712 97.2518724,5.2746712 97.3059816,5.2746712 C98.9123084,5.2746712 100.26895,6.61175569 100.26895,8.19396147 C100.26895,9.83092839 98.9677214,11.1132517 97.3059816,11.1132517 C94.4062489,11.1132517 92.1982015,11.1132517 92.0293547,11.1132517 L92.0293547,5.2746712 Z M103.456831,12.6094043 L103.456831,12.6094043 C105.471911,11.3551134 106.67796,9.18357349 106.67796,6.81776188 C106.67796,3.07901027 103.652407,0.0338997531 99.920826,0.00260767331 C99.1880698,0.00260767331 99.9599411,0.00260767331 85.5558057,0.00391150997 L85.5558057,28.2547923 L101.151648,28.2554442 C105.544925,28.241102 109.115482,24.6620704 109.115482,20.2648812 C109.115482,17.1434963 107.261426,13.9067218 103.456831,12.6094043 L103.456831,12.6094043 Z" id="Fill-6"></path>
            <path d="M181.50319,11.8420964 L174.742796,11.8420964 L174.742796,5.47806971 L181.663561,5.47806971 L181.635529,5.48850041 C183.742529,5.60063036 185.084177,6.82232531 185.084177,8.6646465 C185.084177,10.4893659 183.646697,11.7664739 181.50319,11.8420964 Z M191.50818,8.65291197 C191.50818,3.88738899 187.631222,0.0110826116 182.865699,0.0104306933 L168.427664,0.0104306933 L168.427664,28.2600076 L174.849059,28.2600076 L174.849059,17.2940894 C175.039419,17.2940894 177.772261,17.2940894 179.959447,17.2947413 L186.208736,28.2613115 L193.362236,28.2613115 L186.612273,16.4185631 C189.595452,14.9876024 191.50818,11.973132 191.50818,8.65291197 L191.50818,8.65291197 Z" id="Fill-7"></path>
            <polyline id="Fill-8" points="213.520854 0.0104306933 207.042742 9.72401379 200.590706 0.0104306933 192.35763 0.0104306933 203.564758 16.7497376 203.564758 28.2613115 210.520074 28.2613115 210.520074 16.7497376 221.754583 0.0104306933 213.520854 0.0104306933"></polyline>
            <polyline id="Fill-9" points="145.471663 42.2397443 143.165176 42.2397443 143.165176 52.6156764 150.424939 52.6156764 150.424939 50.519107 145.471663 50.519107 145.471663 42.2397443"></polyline>
            <path d="M178.466554,50.6214582 L177.07536,50.6208063 L177.07536,44.2333105 L178.466554,44.2333105 C180.013556,44.2333105 181.587287,44.9628071 181.587287,47.4277103 C181.587287,49.346306 180.514881,50.6214582 178.466554,50.6214582 Z M178.558474,42.2397443 L174.770177,42.2397443 L174.770177,52.6156764 L178.558474,52.6156764 C181.831756,52.6156764 183.936801,50.6716559 183.936801,47.4277103 C183.936801,44.1244401 181.817414,42.2397443 178.558474,42.2397443 L178.558474,42.2397443 Z" id="Fill-10"></path>
            <path d="M136.464108,48.6878684 L138.563937,48.6878684 L138.563937,50.4441364 C138.162355,50.6514465 137.515,50.838547 136.622524,50.838547 L136.622524,50.8391989 C134.804324,50.8391989 133.716272,49.4467014 133.716272,47.3996778 C133.716272,45.4413152 134.703928,44.0266524 136.323946,44.0149179 C137.650599,44.0181775 138.208641,44.756149 138.337721,44.996055 L140.423208,44.2593872 C139.937529,43.2730348 138.687801,42.050036 136.301128,42.050036 L136.295261,42.050036 C133.354458,42.050036 131.319168,44.285464 131.319168,47.398374 C131.319168,50.6129833 133.384446,52.8053846 136.622524,52.8053846 C138.741911,52.8053846 140.173523,52.0452478 140.772636,51.4898134 L140.772636,46.8194705 L136.464108,46.8194705 L136.464108,48.6878684" id="Fill-11"></path>
            <path d="M155.044432,48.7660986 L156.495602,44.964111 L157.933734,48.7660986 L155.044432,48.7660986 Z M155.310415,42.2397443 L151.286123,52.6156764 L153.581527,52.6156764 L154.304505,50.7088153 L158.645629,50.7088153 L159.397943,52.6156764 L161.8133,52.6156764 L157.770103,42.2397443 L155.310415,42.2397443 L155.310415,42.2397443 Z" id="Fill-12"></path>
            <polyline id="Fill-13" points="112.305319 48.1663338 116.975661 48.1663338 116.975661 46.2060154 112.305319 46.2060154 112.305319 44.1668148 117.949627 44.1668148 117.949627 42.2397443 110.000135 42.2397443 110.000135 52.6156764 118.49072 52.6156764 118.49072 50.6064641 112.305319 50.6064641 112.305319 48.1663338"></polyline>
            <path d="M73.3342928,50.6214582 L71.943751,50.6208063 L71.943751,44.2333105 L73.3342928,44.2333105 C74.8819469,44.2333105 76.4556777,44.9628071 76.4556777,47.4277103 C76.4556777,49.346306 75.3832721,50.6214582 73.3342928,50.6214582 Z M73.4262133,42.2397443 L69.6379158,42.2397443 L69.6379158,52.6156764 L73.4262133,52.6156764 C76.6994952,52.6156764 78.8038875,50.6716559 78.8038875,47.4277103 C78.8038875,44.1244401 76.685153,42.2397443 73.4262133,42.2397443 L73.4262133,42.2397443 Z" id="Fill-14"></path>
            <path d="M85.265702,50.6644848 C83.6254755,50.6644848 82.719309,49.2778545 82.719309,47.4277103 C82.719309,45.6042948 83.6254755,44.1902839 85.265702,44.1902839 C86.9189669,44.1902839 87.8251334,45.6166812 87.8251334,47.4277103 C87.8251334,49.250474 86.9189669,50.6644848 85.265702,50.6644848 Z M85.2643982,42.0643782 C82.3750962,42.0643782 80.3639281,44.2267913 80.3639281,47.4277103 C80.3639281,50.6279774 82.3451079,52.7903905 85.2643982,52.7903905 C88.1537002,52.7903905 90.1642163,50.6129833 90.1642163,47.4277103 C90.1642163,44.2267913 88.1537002,42.0643782 85.2643982,42.0643782 L85.2643982,42.0643782 Z" id="Fill-15"></path>
            <path d="M50.9219926,50.6644848 C49.281766,50.6644848 48.3755996,49.2778545 48.3755996,47.4277103 C48.3755996,45.6042948 49.281766,44.1902839 50.9219926,44.1902839 C52.5746055,44.1902839 53.4814239,45.6166812 53.4814239,47.4277103 C53.4814239,49.250474 52.5746055,50.6644848 50.9219926,50.6644848 Z M50.9200368,42.0643782 C48.0313867,42.0643782 46.0202186,44.2267913 46.0202186,47.4277103 C46.0202186,50.6279774 48.0013984,52.7903905 50.9200368,52.7903905 C53.8099908,52.7903905 55.819855,50.6129833 55.819855,47.4277103 C55.819855,44.2267913 53.8099908,42.0643782 50.9200368,42.0643782 L50.9200368,42.0643782 Z" id="Fill-16"></path>
            <polyline id="Fill-17" points="40.1242693 42.2397443 37.8184342 42.2397443 37.8184342 52.6156764 45.3995924 52.6156764 45.3995924 50.519107 40.1242693 50.519107 40.1242693 42.2397443"></polyline>
            <polyline id="Fill-18" points="127.211431 48.6487533 122.807071 42.2397443 120.185055 42.2397443 120.185055 52.6156764 122.430914 52.6156764 122.430914 45.418498 127.500883 52.6156764 129.409048 52.6156764 129.409048 42.2397443 127.211431 42.2397443 127.211431 48.6487533"></polyline>
            <polyline id="Fill-19" points="169.981185 48.6487533 165.577477 42.2397443 162.956113 42.2397443 162.956113 52.6156764 165.20132 52.6156764 165.20132 45.418498 170.271941 52.6156764 172.179454 52.6156764 172.179454 42.2397443 169.981185 42.2397443 169.981185 48.6487533"></polyline>
            <polyline id="Fill-20" points="99.099409 48.6487533 94.6957006 42.2397443 92.0736851 42.2397443 92.0736851 52.6156764 94.3195438 52.6156764 94.3195438 45.418498 99.3895126 52.6156764 101.297678 52.6156764 101.297678 42.2397443 99.099409 42.2397443 99.099409 48.6487533"></polyline>
            <polyline id="Fill-21" points="64.8495757 48.6487533 60.4458674 42.2397443 57.8238519 42.2397443 57.8238519 52.6156764 60.0690586 52.6156764 60.0690586 45.418498 65.1396794 52.6156764 67.0478443 52.6156764 67.0478443 42.2397443 64.8495757 42.2397443 64.8495757 48.6487533"></polyline>
        </g>
    </g>
</svg>