<?xml version="1.0" encoding="UTF-8"?>
<svg width="360px" height="180px" viewBox="0 0 360 180" version="1.1" xmlns="http://www.w3.org/2000/svg" xmlns:xlink="http://www.w3.org/1999/xlink">
    <title>GL_HPBrand_persol</title>
    <g id="GL_HPBrand_persol" stroke="none" stroke-width="1" fill="none" fill-rule="evenodd">
        <g id="persol/persol_bl" transform="translate(109.500000, 48.000000)" fill="#1A1919">
            <path d="M126.557758,0.000127285979 C127.297861,-0.0067407792 132.848634,0.231448506 132.848634,8.92244172 C132.848634,18.2350212 127.554737,22.1559808 125.39841,24.8025284 C123.242082,27.449076 123.144358,31.3708366 123.144358,34.9978244 C123.144358,38.6240112 125.692381,40.7811397 128.535177,38.918784 C131.377973,37.0556273 134.710989,36.1737118 137.161289,36.1737118 C139.612389,36.1737118 140.690889,37.0556273 140.690889,38.2323157 C140.690889,39.4090041 140.788277,40.9765869 137.651509,42.5449708 C134.514741,44.1133546 124.516494,48.9170308 112.753615,54.3086506 C100.989935,59.6994695 51.9783393,83.52 51.9783393,83.52 L51.9783393,83.52 L32.8629599,83.52 C33.7276296,82.9434227 57.3749143,73.2114885 81.6507787,63.2965413 L86.1115953,61.4754297 C109.886084,51.7738219 132.962185,42.4237294 134.514741,41.8593035 C137.750033,40.6826151 138.337977,39.9969478 138.337977,39.5067277 C138.337977,39.0165076 138.240253,38.1345921 136.965841,38.1345921 C135.691429,38.1345921 132.848634,39.0165076 130.103561,40.6826151 C127.35929,42.3495236 122.261642,45.1915184 119.223399,45.1915184 C116.184355,45.1915184 115.791858,42.1532753 115.791858,42.1532753 L115.791858,42.1532753 L115.791858,18.6275177 C115.791858,10.9810456 119.615094,0.00235873075 126.476573,0.00235873075 C126.476573,0.00235873075 126.481105,0.00208019176 126.489925,0.0017145481 Z M29.7998853,33.821136 C29.113417,34.9978244 27.6772003,41.9578281 27.7412814,44.4081275 C27.8176882,47.2966792 28.1884396,51.8361614 28.3510488,53.7287258 L28.374921,54.0049286 C28.4079149,54.3843582 28.4277497,54.6026225 28.4277497,54.6026225 C28.4277497,76.2660245 19.2128937,83.1275035 11.5672225,83.1275035 C3.92155137,83.1275035 0.784783617,75.9720526 0.784783617,75.9720526 L0.784783617,75.9720526 L5.7839071,69.2082972 C5.87439078,69.4005711 5.9644396,69.5937149 6.05417062,69.787377 L6.32252742,70.3695672 C8.46362809,75.0339098 10.4891203,79.7944876 14.0175219,79.7944876 C17.6847076,79.7944876 17.8343886,73.7521621 17.840498,73.2589111 L17.840758,73.2269804 C16.9112882,68.2063239 16.7261987,62.4797232 16.7157347,58.9476013 L16.715901,58.2413497 C16.721595,56.5981043 16.7625942,55.5822616 16.7625942,55.5822616 C17.1550907,37.5458474 29.7998853,33.821136 29.7998853,33.821136 Z M82.3655766,26.4694369 C87.2821957,26.4694369 88.7834175,28.4432462 89.0729115,28.9169604 L89.1050841,28.9719335 C89.1218014,29.0019484 89.1293322,29.0182609 89.1293322,29.0182609 L89.1293322,29.0182609 L86.2865363,34.7030516 C86.2865363,34.7030516 83.3460168,31.3708366 82.9535203,30.8806166 C82.5618249,30.3903965 79.3265325,29.6062046 79.3265325,32.7429723 C79.3265325,32.7429723 79.4250571,34.8992998 82.3655766,37.4481238 C85.3060961,39.9969478 88.8353604,44.2118792 88.8353604,50.2891664 C88.8353604,56.3664535 83.0520449,59.307774 79.2288089,59.307774 C75.4055728,59.307774 72.1710814,57.6408655 72.1710814,57.6408655 C72.1710814,57.6408655 67.2696815,65.5813094 61.4863661,65.5813094 C55.7030507,65.5813094 55.2128306,57.5431419 60.505926,48.9170308 L60.505926,48.9170308 L56.1676384,47.3886976 C52.7425059,61.5658302 47.7674128,74.2074205 39.112465,74.2074205 C30.6429998,74.2074205 30.394241,65.2639608 30.3878914,64.548484 L30.3877831,64.5031456 C30.3877831,52.3477703 38.4259967,45.8779867 44.5040849,45.8779867 C50.8753441,45.8779867 49.6994567,55.6807862 49.6994567,55.6807862 L49.6994567,55.6807862 L39.5041604,63.3264572 C39.5041604,63.3264572 38.8184931,68.5218288 43.719092,68.5218288 C48.2888724,68.5218288 52.9435602,49.0964577 53.5523302,46.4683334 C53.5523302,46.4683334 55.899299,36.36996 55.9970226,35.6834917 L55.9970226,35.6834917 L56.7812145,35.5857681 C56.7812145,35.5857681 58.6435702,41.3690834 63.8389419,41.3690834 C63.8389419,41.3690834 66.387766,41.2713598 67.662178,40.5848915 L67.662178,40.5848915 L68.2501217,41.466807 C68.2501217,41.466807 64.6231339,47.3486469 64.6231339,52.1515221 C64.6231339,52.1515221 64.9171057,55.0928426 67.7599016,55.0928426 C70.6026975,55.0928426 73.053798,49.3087262 73.053798,49.3087262 C73.053798,49.3087262 76.876233,55.9747581 80.0130008,55.9747581 C80.0130008,55.9747581 82.6595485,55.6807862 82.6595485,53.2296859 C82.6595485,50.7793865 79.9152772,48.3282861 78.8371134,47.4463706 C77.7581486,46.564455 72.4650533,41.0751116 72.4650533,35.9774636 C72.4650533,30.8806166 76.7785094,26.4694369 82.3655766,26.4694369 Z M28.1337778,26.6656851 C28.1337778,26.6656851 43.2296729,26.959657 43.2296729,35.3895199 C43.2296729,43.8193828 33.5245968,44.7020993 33.5245968,44.7020993 C37.1566711,29.8024528 27.0425275,29.2606094 26.022033,29.2436742 L25.9398026,29.2433456 C13.0010362,29.2433456 8.13648291,44.6035747 8.13648291,49.7012227 C8.13648291,54.7980697 11.2732507,60.0919659 12.3514145,61.5618252 C13.4295782,63.0324854 11.0770024,63.2287336 11.0770024,63.2287336 L11.0770024,63.2287336 L11.0602466,63.2284532 C10.5835915,63.2185848 0.0960943002,62.8784724 0.00059167901,52.0537985 C-0.101938013,40.4871679 13.1356064,26.6656851 28.1337778,26.6656851 Z M40.5823242,49.7989463 C37.9357766,50.4854146 38.1320248,58.033362 38.8184931,59.8957177 L42.8371764,57.2491701 L42.5432046,52.7394658 L42.5431185,52.7050907 C42.5399673,52.3464898 42.4580145,49.3126842 40.5823242,49.7989463 Z M103.441035,21.6657607 C104.519199,21.6657607 112.557367,22.4499526 112.557367,32.2527522 C112.557367,42.0547507 105.597363,51.3673302 99.0298556,51.3673302 C91.6523592,51.3673302 91.2936233,42.2845065 91.2844916,40.7914396 L91.284769,40.6380252 C91.2849005,40.626384 91.2850432,40.6165999 91.2851752,40.6087282 L91.2856598,40.5848915 C91.2856598,24.8025284 102.362872,21.6657607 103.441035,21.6657607 Z M97.6577199,30.8806166 C97.3933856,34.792765 100.206544,45.0937948 103.147063,45.0937948 C106.087583,45.0937948 104.375818,33.1987488 103.04934,29.9979 C101.382431,25.9792168 98.14794,23.626641 97.6577199,30.8806166 Z M125.692381,2.74743097 C124.026274,2.74743097 123.339806,6.1781705 123.339806,9.4126618 L123.339806,20.4898733 L123.339806,20.4898733 C123.339806,20.4898733 123.68344,23.0627277 125.104438,20.2936251 L125.328541,19.8572896 C126.565533,17.4451614 127.848709,14.7845767 127.848709,9.60891004 C127.848709,4.11956658 127.065318,2.74743097 125.692381,2.74743097 Z M138.081653,0.80577497 C139.534691,0.80577497 140.777062,1.93520358 140.777062,3.46674082 C140.777062,5.01189528 139.534691,6.14052288 138.081653,6.14052288 C136.613396,6.14052288 135.371825,5.01189528 135.371825,3.46674082 C135.371825,1.93520358 136.613396,0.80577497 138.081653,0.80577497 Z M138.081653,1.2503373 C136.860909,1.2503373 135.907703,2.203543 135.907703,3.46674082 C135.907703,4.75076498 136.860909,5.69596055 138.081653,5.69596055 C139.287979,5.69596055 140.240383,4.75076498 140.240383,3.46674082 C140.240383,2.203543 139.287979,1.2503373 138.081653,1.2503373 Z M138.222631,1.93520358 C138.94915,1.93520358 139.309606,2.203543 139.309606,2.80991 C139.309606,3.36020606 138.963568,3.60051002 138.511797,3.65658095 L139.386503,5.01189528 L138.864243,5.01189528 L138.052816,3.6782083 L137.516939,3.6782083 L137.516939,5.01189528 L137.050749,5.01189528 L137.050749,1.93520358 L138.222631,1.93520358 Z M138.152142,2.33010309 L137.516939,2.33010309 L137.516939,3.2833088 L138.074444,3.2833088 C138.469343,3.2833088 138.82259,3.25447232 138.82259,2.78187453 C138.82259,2.40059225 138.476552,2.33010309 138.152142,2.33010309 Z" id="persol_black"></path>
        </g>
    </g>
</svg>