<?xml version="1.0" encoding="UTF-8"?>
<svg width="360px" height="180px" viewBox="0 0 360 180" version="1.1" xmlns="http://www.w3.org/2000/svg" xmlns:xlink="http://www.w3.org/1999/xlink">
    <title>GL_HPBrand_armani-exchange</title>
    <g id="GL_HPBrand_armani-exchange" stroke="none" stroke-width="1" fill="none" fill-rule="evenodd">
        <path d="M253.164922,118.336863 C254.789033,118.336863 256.244642,119.176378 257.065513,120.549453 L257.065513,120.549453 L256.637145,120.889046 C255.717096,119.664014 254.493303,118.891572 253.465861,118.891572 C251.18878,118.891572 249.965788,121.616975 249.965788,124.949657 C249.965788,128.282541 251.109438,130.98599 253.465861,130.960812 C254.148084,130.95336 254.761584,130.661705 255.331806,129.778079 L255.331806,129.778079 L255.331806,126.781565 L253.683051,126.781565 L253.683051,126.185566 L257.441387,126.185566 L257.441387,128.681754 C257.441387,128.681754 257.417457,128.716437 257.377433,128.774306 L257.278245,128.917553 C257.104237,129.168577 256.832381,129.559294 256.674212,129.779287 C255.771394,131.03574 254.382504,131.47 253.164922,131.47 C250.162541,131.47 247.728779,128.530085 247.728779,124.903331 C247.728779,121.276778 250.162541,118.336863 253.164922,118.336863 Z M200.697884,118.336863 C202.322195,118.336863 203.777604,119.176378 204.598475,120.549453 L204.598475,120.549453 L204.170107,120.889046 C203.250058,119.664014 202.026265,118.891572 200.999023,118.891572 C198.721942,118.891572 197.49895,121.616975 197.49895,124.949657 C197.49895,128.282541 198.6424,130.960611 200.999023,130.960812 C202.120834,130.960812 203.309565,130.232078 204.191345,129.063645 L204.191345,129.063645 L204.68523,129.364968 C203.692451,130.659086 202.273908,131.47 200.697884,131.47 C197.695703,131.47 195.26174,128.530085 195.26174,124.903331 C195.26174,121.276778 197.695703,118.336863 200.697884,118.336863 Z M210.474006,118.636575 L210.474006,124.483775 L215.589374,124.483775 L215.589374,118.636575 L217.75185,118.636575 L217.75185,131.47 L215.589374,131.47 L215.589374,125.128518 L210.474006,125.128518 L210.474006,131.47 L208.31153,131.47 L208.31153,118.636575 L210.474006,118.636575 Z M136.019158,118.350358 L140.902911,131.320346 L138.653079,131.320346 L137.373385,127.921799 L132.728059,127.921799 L131.434741,131.320346 L130.755123,131.320346 L135.69097,118.350358 L136.019158,118.350358 Z M226.307585,118.350358 L231.191538,131.320346 L228.941506,131.320346 L227.661812,127.921799 L223.016686,127.921799 L221.723168,131.320346 L221.04355,131.320346 L225.979397,118.350358 L226.307585,118.350358 Z M107.40427,118.636575 C109.878505,118.715531 111.647275,119.858787 111.647275,121.800065 C111.647275,124.346608 109.229342,124.894066 108.82121,124.968389 L108.82121,124.968389 L108.82121,124.974835 L108.836037,124.974835 L112.266185,131.320346 L109.924788,131.320346 L106.49464,124.974835 L105.912998,124.974835 L105.912998,131.313094 L103.705641,131.313094 L103.705641,118.636575 L107.40427,118.636575 Z M118.328651,118.636575 L121.94353,127.757643 L125.308361,118.636575 L127.54537,118.636575 L127.54537,131.320346 L125.420161,131.320346 L125.420161,120.031403 L121.415784,130.885683 L120.789461,130.885683 L116.628604,120.386505 L116.628604,131.320346 L115.93496,131.320346 L115.93496,118.636575 L118.328651,118.636575 Z M95.3490635,118.350358 L100.232817,131.320346 L97.9829844,131.320346 L96.7032908,127.921799 L92.0579648,127.921799 L90.7646467,131.320346 L90.0850286,131.320346 L95.0208753,118.350358 L95.3490635,118.350358 Z M236.707625,118.636575 L243.150373,127.43376 L243.150373,118.636575 L243.776695,118.636575 L243.776695,131.313094 L243.351734,131.313094 L235.052058,119.980645 L235.052058,131.313094 L234.425735,131.313094 L234.425735,118.636575 L236.707625,118.636575 Z M159.938429,118.636575 L159.938429,131.313094 L157.634099,131.313094 L157.634099,118.636575 L159.938429,118.636575 Z M146.336851,118.636575 L152.779799,127.43376 L152.779799,118.636575 L153.406121,118.636575 L153.406121,131.313094 L152.980959,131.313094 L144.681484,119.980645 L144.681484,131.313094 L144.055161,131.313094 L144.055161,118.636575 L146.336851,118.636575 Z M269.100885,118.636575 L269.100885,119.236401 L263.538114,119.236401 L263.538114,124.258991 L267.475371,124.258991 L267.475371,124.949657 L263.538114,124.949657 L263.538114,130.585971 L269.100885,130.585971 L269.100885,131.283083 L261.405492,131.283083 L261.405492,118.636575 L269.100885,118.636575 Z M180.154062,118.636575 L180.154062,119.236401 L174.591292,119.236401 L174.591292,124.258991 L178.528549,124.258991 L178.528549,124.949657 L174.591292,124.949657 L174.591292,130.585971 L180.154062,130.585971 L180.154062,131.283083 L172.458469,131.283083 L172.458469,118.636575 L180.154062,118.636575 Z M185.272837,118.616433 L188.399842,123.425518 L191.713781,118.616433 L192.452906,118.616433 L188.758685,123.977407 L193.508598,131.283083 L190.974656,131.283083 L187.454748,125.869539 L183.724261,131.283083 L182.985137,131.283083 L187.095904,125.31765 L182.738895,118.616433 L185.272837,118.616433 Z M94.3929499,121.786369 L92.2643347,127.37978 L96.4991248,127.37978 L94.3929499,121.786369 Z M135.063044,121.786369 L132.934429,127.37978 L137.169219,127.37978 L135.063044,121.786369 Z M225.351471,121.786369 L223.222856,127.37978 L227.457846,127.37978 L225.351471,121.786369 Z M106.889748,119.20639 L105.912998,119.20639 L105.912998,124.453965 L107.240978,124.453965 C107.71062,124.439462 109.501229,124.227167 109.501229,121.830278 C109.501229,121.132965 109.365586,119.20639 106.889748,119.20639 L106.889748,119.20639 Z M179.960115,48.53 L179.960115,104.843387 L178.617909,104.843387 L178.617909,48.53 L179.960115,48.53 Z M201.972969,60.5847384 L209.923018,72.8116902 L218.34852,60.5847384 L220.227688,60.5847384 L210.835253,74.2147764 L222.912099,92.7890518 L216.469351,92.7890518 L207.520312,79.0254729 L198.035712,92.7890518 L196.156744,92.7890518 L206.608077,77.6223866 L195.530222,60.5847384 L201.972969,60.5847384 Z M149.989798,59.7750331 L162.42148,92.7890518 L156.694615,92.7890518 L153.436976,84.1382981 L141.612984,84.1382981 L138.320683,92.7890518 L136.590782,92.7890518 L149.154501,59.7750331 L149.989798,59.7750331 Z M147.556236,68.5208567 L142.137724,82.7589794 L152.917646,82.7589794 L147.556236,68.5208567 Z" id="armani-exchange_bl" fill="#1A1919"></path>
    </g>
</svg>